<?xml version="1.0" encoding="utf-8"?>
<svg version="1.1" id="Laag_1" xmlns="http://www.w3.org/2000/svg" xmlns:xlink="http://www.w3.org/1999/xlink" x="0px" y="0px"
	 viewBox="0 0 40 40" style="enable-background:new 0 0 40 40;" xml:space="preserve">
<style type="text/css">
	.st0{fill:#FFFFFF;stroke:#CCCCCC;stroke-miterlimit:10;}
	.st1{fill:#CCCCCC;}
	.st2{fill:none;stroke:#CCCCCC;stroke-miterlimit:10;}
</style>
<circle class="st0" cx="20.3" cy="20.3" r="18.5"/>
<path class="st1" d="M10.5,15.4l6.2,4.5l6.6-5l-2.3-7h-8.3L10.5,15.4z"/>
<path class="st1" d="M31.1,17.7v8.5h4.6l3.1-4.7l0.1-2.4L35,14.3L31.1,17.7z"/>
<path class="st1" d="M12.6,32l2.3,5l8.5,0.2l0.9-6.3l-6.7-3L12.6,32z"/>
<path class="st1" d="M2.5,17l2.9,2.9v6.3l-1,3.6l-1.9-4.4l-0.7-3.9"/>
<g>
	<path class="st2" d="M22.3,14.5l9.9,3.6"/>
	<path class="st2" d="M16.9,18.4l0.7,17.8"/>
	<path class="st2" d="M14.1,37.7l18.1-12.3"/>
	<path class="st2" d="M4.5,26.2l19.8,12.1"/>
	<path class="st2" d="M4.2,19.9l8.4-5.4"/>
	<path class="st2" d="M13.7,9.3L9.6,5.2"/>
	<path class="st2" d="M19.9,9.5l6.4-6.7"/>
	<path class="st2" d="M35,31.5v-22"/>
</g>
</svg>
