<?xml version="1.0" standalone="no"?>
<!DOCTYPE svg PUBLIC "-//W3C//DTD SVG 20010904//EN"
 "http://www.w3.org/TR/2001/REC-SVG-20010904/DTD/svg10.dtd">
<svg version="1.0" xmlns="http://www.w3.org/2000/svg"
 width="700.000000pt" height="700.000000pt" viewBox="0 0 700.000000 700.000000"
 preserveAspectRatio="xMidYMid meet">
<metadata>
Created by potrace 1.11, written by Peter Selinger 2001-2013
</metadata>
<g transform="translate(0.000000,700.000000) scale(0.100000,-0.100000)"
fill="#000000" stroke="none">
<path d="M3528 6776 c-1 -2 -61 -6 -133 -9 -198 -10 -326 -25 -510 -63 -66
-14 -131 -27 -143 -30 -55 -11 -320 -97 -415 -135 -430 -171 -795 -414 -1132
-753 -498 -500 -817 -1127 -924 -1811 -16 -97 -20 -126 -28 -200 -10 -92 -10
-549 0 -645 21 -196 48 -348 87 -500 17 -63 33 -123 35 -133 7 -29 65 -195 97
-277 219 -554 606 -1062 1089 -1426 508 -384 1072 -598 1738 -661 142 -13 559
-6 651 12 12 2 48 7 79 11 31 3 65 8 76 10 178 34 192 37 293 63 649 167 1253
546 1697 1064 283 331 511 746 639 1162 54 177 53 172 75 275 56 264 75 448
75 710 -1 270 -22 486 -69 700 -4 14 -8 36 -11 50 -7 40 -64 239 -89 315 -45
134 -97 261 -166 403 -433 887 -1249 1541 -2209 1771 -143 35 -147 35 -295 56
-60 9 -123 18 -140 20 -16 3 -100 8 -185 11 -85 3 -160 7 -167 9 -6 2 -13 2
-15 1z m292 -190 c92 -10 216 -26 245 -31 17 -3 46 -8 65 -11 55 -8 281 -64
296 -72 13 -7 13 -8 -331 -367 -100 -104 -208 -217 -239 -250 -32 -33 -96
-100 -143 -149 l-86 -89 -675 0 -674 0 -230 230 -229 229 55 37 c31 20 58 37
61 37 2 0 28 15 57 33 216 136 703 318 941 352 23 3 58 10 78 16 20 5 61 12
90 15 30 3 68 7 84 9 17 2 68 7 115 11 47 3 86 7 87 8 5 5 388 -3 433 -8z
m1098 -301 c73 -35 161 -81 195 -101 61 -37 242 -152 262 -166 32 -24 223
-175 249 -197 63 -53 255 -248 312 -316 118 -141 136 -165 120 -165 -20 0 -18
49 -18 -478 l-1 -443 -61 -52 c-33 -29 -77 -66 -96 -83 -19 -17 -78 -69 -130
-114 -52 -45 -124 -108 -159 -139 -35 -31 -67 -57 -71 -59 -4 -2 -68 19 -141
47 -134 49 -502 182 -739 268 -69 24 -134 48 -145 53 -11 5 -118 44 -237 87
l-218 78 -67 205 c-37 113 -68 207 -68 210 -1 3 -4 12 -8 20 -17 43 -167 510
-167 520 0 6 10 21 23 34 12 12 96 101 187 196 217 227 217 228 420 440 96
101 196 205 221 231 l47 48 78 -30 c44 -17 139 -59 212 -94z m-2989 -569 c139
-140 251 -258 248 -263 -3 -5 -21 -62 -40 -128 -20 -66 -92 -313 -161 -550
-69 -236 -131 -435 -138 -441 -27 -25 -1030 -665 -1039 -662 -5 2 -85 79 -178
171 l-169 168 19 87 c11 48 21 96 23 107 2 12 14 54 26 95 166 573 468 1064
903 1467 71 66 238 203 247 203 3 0 120 -114 259 -254z m4305 -615 c132 -232
184 -335 246 -491 69 -175 142 -425 166 -570 3 -19 9 -55 14 -80 15 -77 20
-132 11 -128 -5 2 -49 53 -97 113 -49 61 -95 119 -104 129 -8 10 -27 33 -41
50 -15 17 -69 84 -122 149 l-95 117 0 371 c0 204 3 368 6 365 3 -3 10 -14 16
-25z m-2187 -782 c15 -6 37 -15 48 -20 11 -4 315 -115 675 -245 360 -130 659
-241 664 -245 12 -11 12 -1282 0 -1286 -5 -2 -72 -47 -149 -99 -77 -53 -225
-154 -330 -225 -104 -71 -237 -161 -295 -200 -58 -39 -197 -134 -309 -210
-111 -77 -209 -139 -215 -139 -7 0 -177 74 -377 164 -462 207 -457 205 -561
251 l-88 39 -1 61 c-1 33 -2 85 -4 115 -2 30 -6 134 -9 230 -4 96 -9 216 -11
265 -2 50 -7 153 -10 230 -10 262 -16 430 -20 520 l-4 90 168 127 c92 70 305
230 472 357 167 127 309 231 316 231 7 0 25 -5 40 -11z m-1166 -818 c0 -25 2
-75 4 -111 2 -36 6 -141 9 -235 4 -93 8 -217 11 -275 2 -58 7 -172 10 -255 3
-82 8 -197 10 -255 3 -58 7 -164 10 -236 l5 -130 -148 -122 c-338 -279 -404
-332 -413 -332 -9 0 -113 62 -254 150 -33 21 -305 187 -605 370 -300 183 -552
338 -560 346 -13 11 -15 83 -14 551 0 296 -3 546 -8 555 -7 14 66 64 432 300
242 156 476 306 521 334 l81 51 454 -329 454 -330 1 -47z m3794 -481 c-3 -16
-8 -45 -11 -62 -3 -18 -8 -46 -10 -63 -4 -24 -26 -127 -49 -225 -7 -31 -66
-232 -75 -253 -5 -12 -23 -60 -40 -105 -17 -46 -35 -91 -40 -100 -5 -10 -33
-70 -64 -134 -49 -106 -161 -308 -170 -308 -2 0 -3 145 -2 323 1 280 3 322 16
320 10 -2 89 110 225 317 116 176 213 320 217 320 4 0 5 -13 3 -30z m-639
-1058 l1 -452 -70 -83 c-355 -421 -804 -739 -1313 -930 -137 -51 -325 -107
-361 -107 -13 0 -62 23 -109 52 l-85 52 5 55 c3 31 8 67 10 81 8 43 26 168 31
213 3 23 7 53 10 67 3 14 7 45 10 70 3 25 7 56 10 70 3 14 8 50 11 80 3 30 7
57 9 60 2 3 6 34 10 70 4 36 9 67 10 70 2 3 6 34 10 69 4 35 10 74 15 86 5 12
57 55 117 95 59 41 149 101 198 135 50 34 153 104 230 157 77 52 259 176 405
275 146 99 295 200 331 224 l66 44 224 0 224 0 1 -453z m-4979 186 c83 -51
383 -235 667 -408 367 -224 511 -317 501 -323 -8 -4 -15 -13 -15 -18 0 -6 50
-119 111 -252 132 -285 155 -336 204 -442 62 -132 63 -118 -11 -166 l-65 -42
-72 28 c-252 97 -558 277 -802 472 -102 82 -315 285 -395 378 -93 107 -250
316 -250 333 0 6 -4 12 -8 14 -4 2 -32 43 -62 91 -60 99 -59 91 -16 237 9 30
24 85 33 123 9 37 20 67 23 67 3 0 74 -42 157 -92z m2413 -1644 c140 -3 262
-6 270 -6 15 -1 283 -158 278 -164 -4 -3 -75 -12 -158 -19 -36 -4 -78 -8 -95
-10 -44 -7 -339 -6 -420 0 -161 13 -333 36 -445 61 -116 25 -230 57 -230 63 0
4 28 26 63 49 l62 42 210 -5 c116 -2 325 -7 465 -11z"/>
</g>
</svg>
